<?xml version="1.0" encoding="iso-8859-1"?>
<!-- Generator: Adobe Illustrator 19.0.0, SVG Export Plug-In . SVG Version: 6.00 Build 0)  -->
<svg version="1.1" id="Layer_1" xmlns="http://www.w3.org/2000/svg" xmlns:xlink="http://www.w3.org/1999/xlink" x="0px" y="0px"
	 viewBox="0 0 484.32 484.32" style="enable-background:new 0 0 484.32 484.32;" xml:space="preserve">
<g>
	<polygon style="fill:#00233F;" points="303.32,254.312 425.088,324.752 452.496,480.312 248.224,480.312 	"/>
	<polygon style="fill:#00233F;" points="178.808,254.312 57.04,324.752 29.632,480.312 233.896,480.312 	"/>
</g>
<polygon style="fill:#F9BDA0;" points="302.496,280.312 181.824,280.312 189.864,184.312 294.448,184.312 "/>
<polygon style="fill:#E28F71;" points="302.496,280.312 241.96,280.312 181.824,184.312 294.448,184.312 "/>
<path style="fill:#FCCCB9;" d="M323.632,102.688c0,70.872-35.72,135-81.472,135c-45.768,0-81.472-64.128-81.472-135
	c0-70.88,35.704-98.68,81.472-98.68C287.912,4.008,323.632,31.808,323.632,102.688z"/>
<path style="fill:#F9BDA0;" d="M242.16,20.008c45.752,0,81.472,11.8,81.472,82.68c0,70.872-35.72,135-81.472,135"/>
<polygon style="fill:#FFD60B;" points="461.256,308.568 340.68,265.928 343.368,258.248 306.688,242.648 243.256,282.688 
	179.832,242.472 143.136,257.816 145.576,264.36 23.064,308.576 0,480.312 187.472,480.312 234.992,480.312 249.328,480.312 
	299.064,480.312 484.32,480.312 "/>
<polyline style="fill:#FFBE06;" points="74.16,480.312 234.992,480.312 249.328,480.312 299.064,480.312 484.32,480.312 
	461.256,308.568 340.68,265.928 343.368,258.248 306.688,242.648 243.256,282.688 179.832,242.472 243.368,282.68 145.576,264.36 
	23.784,308.576 "/>
<polyline style="fill:#FF8908;" points="234.16,480.312 249.328,480.312 299.064,480.312 484.32,480.312 461.256,308.568 
	340.68,265.928 343.368,258.248 306.688,242.648 243.256,282.688 "/>
<polyline style="fill:#DD6105;" points="402.16,480.312 484.32,480.312 461.256,308.568 "/>
<path style="fill:#7C4615;" d="M203.664,196.008c-0.168-0.224-0.264-0.376-0.264-0.376S203.464,195.848,203.664,196.008z"/>
<path style="fill:#C45022;" d="M242.16,173.192c-8-0.424-19.872,0.288-27.392,11.456c-7.968,11.8-10.416,11.912-11.136,11.36
	c1.16,1.472,6.248,6.344,19.12-1.592c9.208-5.672,19.408-6.416,19.408-6.176V173.192z"/>
<path style="fill:#7C4615;" d="M280.648,196.008c0.168-0.224,0.264-0.376,0.264-0.376S280.832,195.848,280.648,196.008z"/>
<g>
	<path style="fill:#B23A10;" d="M242.16,173.192c8-0.424,19.856,0.288,27.376,11.456c7.968,11.8,10.424,11.912,11.144,11.36
		c-1.16,1.472-6.272,6.344-19.128-1.592c-9.208-5.672-19.392-6.416-19.392-6.176V173.192z"/>
	<path style="fill:#B23A10;" d="M311.96,68.664c0,0-6.672,20,2.656,32c0,0,2.672,1.336,3.344,7.336c0.656,6,2.16,23.496-4.84,57.496
		c-2.312,11.264-17.16,41.832-35.832,31.168l-5.232,2c0,0,2.104,26.008-29.896,25.336v23.328c0,0,35.224,3.328,59.224-30
		s25.952-80.656,25.28-107.328c-0.656-26.672,11.304-27.344,5.976-36.672S311.96,68.664,311.96,68.664z"/>
</g>
<path style="fill:#C45022;" d="M172.368,68.664c0,0,6.672,20-2.672,32c0,0-2.672,1.336-3.328,7.336
	c-0.672,6-2.168,23.496,4.832,57.496c2.328,11.264,17.16,41.832,35.832,31.168l5.24,2c0,0-2.104,26.008,29.896,25.336v23.328
	c0,0-35.24,3.328-59.24-30S157,136.672,157.656,110c0.672-26.672-8.632-22.928-3.304-32.256S172.368,68.664,172.368,68.664z"/>
<path style="fill:#BCD3CF;" d="M232.096,123.28c0,15.68-13.408,28.376-29.912,28.376c-16.544,0-21.944-12.696-21.944-28.376
	s5.4-21.288,21.944-21.288C218.688,101.992,232.096,107.6,232.096,123.28z"/>
<path style="fill:#472108;" d="M202.176,155.656c-16.728,0-25.944-11.496-25.944-32.376c0-18.2,7.272-25.288,25.944-25.288
	c21.552,0,33.912,9.216,33.912,25.288C236.096,141.136,220.88,155.656,202.176,155.656z M202.176,105.992
	c-14.088,0-17.944,3.712-17.944,17.288c0,24.376,13.504,24.376,17.944,24.376c14.288,0,25.912-10.936,25.912-24.376
	C228.096,111.808,219.376,105.992,202.176,105.992z"/>
<path style="fill:#472108;" d="M170.16,128.312h-16c-2.208,0-4-1.792-4-4s1.792-4,4-4h16c2.208,0,4,1.792,4,4
	S172.368,128.312,170.16,128.312z"/>
<path style="fill:#BCD3CF;" d="M252.232,123.28c0,15.68,13.4,28.376,29.928,28.376c16.52,0,21.928-12.696,21.928-28.376
	s-5.4-21.288-21.928-21.288S252.232,107.6,252.232,123.28z"/>
<path style="fill:#472108;" d="M282.16,155.656c-18.704,0-33.928-14.52-33.928-32.376c0-16.072,12.368-25.288,33.928-25.288
	c18.416,0,25.928,7.328,25.928,25.288C308.096,144.16,298.888,155.656,282.16,155.656z M282.16,105.992
	c-17.208,0-25.928,5.816-25.928,17.288c0,13.44,11.632,24.376,25.928,24.376c4.432,0,17.928,0,17.928-24.376
	C300.096,109.704,296.24,105.992,282.16,105.992z"/>
<g>
	<path style="fill:#472108;" d="M330.16,128.312h-16c-2.208,0-4-1.792-4-4s1.792-4,4-4h16c2.208,0,4,1.792,4,4
		S332.368,128.312,330.16,128.312z"/>
	<path style="fill:#472108;" d="M252.248,128.664c-2.208,0-4-1.792-4-4c0-3.352-2.728-6.088-6.088-6.088s-6.088,2.728-6.088,6.088
		c0,2.208-1.792,4-4,4s-4-1.792-4-4c0-7.768,6.32-14.088,14.088-14.088c7.768,0,14.088,6.32,14.088,14.088
		C256.248,126.872,254.464,128.664,252.248,128.664z"/>
</g>
<g>
	<circle style="fill:#FFD60B;" cx="53.496" cy="310.656" r="3.792"/>
	<circle style="fill:#FFD60B;" cx="81.496" cy="310.656" r="3.792"/>
	<circle style="fill:#FFD60B;" cx="109.496" cy="310.656" r="3.792"/>
	<circle style="fill:#FFD60B;" cx="137.496" cy="310.656" r="3.792"/>
	<circle style="fill:#FFD60B;" cx="165.496" cy="310.656" r="3.792"/>
	<circle style="fill:#FFD60B;" cx="193.496" cy="310.656" r="3.792"/>
	<circle style="fill:#FFD60B;" cx="221.496" cy="310.656" r="3.792"/>
	<circle style="fill:#FFD60B;" cx="53.496" cy="334.448" r="3.792"/>
	<circle style="fill:#FFD60B;" cx="81.496" cy="334.448" r="3.792"/>
	<circle style="fill:#FFD60B;" cx="109.496" cy="334.448" r="3.792"/>
	<circle style="fill:#FFD60B;" cx="137.496" cy="334.448" r="3.792"/>
	<circle style="fill:#FFD60B;" cx="165.496" cy="334.448" r="3.792"/>
	<circle style="fill:#FFD60B;" cx="193.496" cy="334.448" r="3.792"/>
	<circle style="fill:#FFD60B;" cx="221.496" cy="334.448" r="3.792"/>
	<circle style="fill:#FFD60B;" cx="53.496" cy="358.232" r="3.792"/>
	<circle style="fill:#FFD60B;" cx="81.496" cy="358.232" r="3.792"/>
	<circle style="fill:#FFD60B;" cx="109.496" cy="358.232" r="3.792"/>
	<circle style="fill:#FFD60B;" cx="137.496" cy="358.232" r="3.792"/>
	<circle style="fill:#FFD60B;" cx="165.496" cy="358.232" r="3.792"/>
	<circle style="fill:#FFD60B;" cx="193.496" cy="358.232" r="3.792"/>
	<circle style="fill:#FFD60B;" cx="221.496" cy="358.232" r="3.792"/>
	<circle style="fill:#FFD60B;" cx="53.496" cy="382.024" r="3.792"/>
	<circle style="fill:#FFD60B;" cx="81.496" cy="382.024" r="3.792"/>
	<circle style="fill:#FFD60B;" cx="109.496" cy="382.024" r="3.792"/>
	<circle style="fill:#FFD60B;" cx="137.496" cy="382.024" r="3.792"/>
	<circle style="fill:#FFD60B;" cx="165.496" cy="382.024" r="3.792"/>
	<circle style="fill:#FFD60B;" cx="193.496" cy="382.024" r="3.792"/>
	<circle style="fill:#FFD60B;" cx="221.496" cy="382.024" r="3.792"/>
	<circle style="fill:#FFD60B;" cx="53.496" cy="405.816" r="3.792"/>
	<circle style="fill:#FFD60B;" cx="81.496" cy="405.816" r="3.792"/>
	<circle style="fill:#FFD60B;" cx="109.496" cy="405.816" r="3.792"/>
	<circle style="fill:#FFD60B;" cx="137.496" cy="405.816" r="3.792"/>
	<circle style="fill:#FFD60B;" cx="165.496" cy="405.816" r="3.792"/>
	<circle style="fill:#FFD60B;" cx="193.496" cy="405.816" r="3.792"/>
	<circle style="fill:#FFD60B;" cx="221.496" cy="405.816" r="3.792"/>
	<circle style="fill:#FFD60B;" cx="53.496" cy="429.6" r="3.792"/>
	<circle style="fill:#FFD60B;" cx="81.496" cy="429.6" r="3.792"/>
	<circle style="fill:#FFD60B;" cx="109.496" cy="429.6" r="3.792"/>
	<circle style="fill:#FFD60B;" cx="137.496" cy="429.6" r="3.792"/>
	<circle style="fill:#FFD60B;" cx="165.496" cy="429.6" r="3.792"/>
	<circle style="fill:#FFD60B;" cx="193.496" cy="429.6" r="3.792"/>
	<circle style="fill:#FFD60B;" cx="221.496" cy="429.6" r="3.792"/>
	<circle style="fill:#FFD60B;" cx="53.496" cy="453.352" r="3.792"/>
	<circle style="fill:#FFD60B;" cx="81.496" cy="453.352" r="3.792"/>
	<circle style="fill:#FFD60B;" cx="109.496" cy="453.352" r="3.792"/>
	<circle style="fill:#FFD60B;" cx="137.496" cy="453.352" r="3.792"/>
	<circle style="fill:#FFD60B;" cx="165.496" cy="453.352" r="3.792"/>
	<circle style="fill:#FFD60B;" cx="193.496" cy="453.352" r="3.792"/>
	<circle style="fill:#FFD60B;" cx="221.496" cy="453.352" r="3.792"/>
	<circle style="fill:#FFD60B;" cx="262.824" cy="310.656" r="3.8"/>
	<circle style="fill:#FFD60B;" cx="290.8" cy="310.656" r="3.8"/>
	<circle style="fill:#FFD60B;" cx="318.824" cy="310.656" r="3.8"/>
	<circle style="fill:#FFD60B;" cx="346.8" cy="310.656" r="3.8"/>
	<circle style="fill:#FFD60B;" cx="374.824" cy="310.656" r="3.8"/>
	<circle style="fill:#FFD60B;" cx="402.8" cy="310.656" r="3.8"/>
	<circle style="fill:#FFD60B;" cx="430.8" cy="310.656" r="3.8"/>
	<circle style="fill:#FFD60B;" cx="262.824" cy="334.448" r="3.8"/>
	<circle style="fill:#FFD60B;" cx="290.8" cy="334.448" r="3.8"/>
	<circle style="fill:#FFD60B;" cx="318.824" cy="334.448" r="3.8"/>
	<circle style="fill:#FFD60B;" cx="346.8" cy="334.448" r="3.8"/>
	<circle style="fill:#FFD60B;" cx="374.824" cy="334.448" r="3.8"/>
	<circle style="fill:#FFD60B;" cx="402.8" cy="334.448" r="3.8"/>
	<circle style="fill:#FFD60B;" cx="430.8" cy="334.448" r="3.8"/>
	<circle style="fill:#FFD60B;" cx="262.824" cy="358.232" r="3.8"/>
	<circle style="fill:#FFD60B;" cx="290.8" cy="358.232" r="3.8"/>
	<circle style="fill:#FFD60B;" cx="318.824" cy="358.232" r="3.8"/>
	<circle style="fill:#FFD60B;" cx="346.8" cy="358.232" r="3.8"/>
	<circle style="fill:#FFD60B;" cx="374.824" cy="358.232" r="3.8"/>
	<circle style="fill:#FFD60B;" cx="402.8" cy="358.232" r="3.8"/>
	<circle style="fill:#FFD60B;" cx="430.8" cy="358.232" r="3.8"/>
	<circle style="fill:#FFD60B;" cx="262.824" cy="382.024" r="3.8"/>
	<circle style="fill:#FFD60B;" cx="290.8" cy="382.024" r="3.8"/>
	<circle style="fill:#FFD60B;" cx="318.824" cy="382.024" r="3.8"/>
	<circle style="fill:#FFD60B;" cx="346.8" cy="382.024" r="3.8"/>
	<circle style="fill:#FFD60B;" cx="374.824" cy="382.024" r="3.8"/>
	<circle style="fill:#FFD60B;" cx="402.8" cy="382.024" r="3.8"/>
	<circle style="fill:#FFD60B;" cx="430.8" cy="382.024" r="3.8"/>
	<circle style="fill:#FFD60B;" cx="262.824" cy="405.816" r="3.8"/>
	<circle style="fill:#FFD60B;" cx="290.8" cy="405.816" r="3.8"/>
	<circle style="fill:#FFD60B;" cx="318.824" cy="405.816" r="3.8"/>
	<circle style="fill:#FFD60B;" cx="346.8" cy="405.816" r="3.8"/>
	<circle style="fill:#FFD60B;" cx="374.824" cy="405.816" r="3.8"/>
	<circle style="fill:#FFD60B;" cx="402.8" cy="405.816" r="3.8"/>
	<circle style="fill:#FFD60B;" cx="430.8" cy="405.816" r="3.8"/>
	<circle style="fill:#FFD60B;" cx="262.824" cy="429.6" r="3.8"/>
	<circle style="fill:#FFD60B;" cx="290.8" cy="429.6" r="3.8"/>
	<circle style="fill:#FFD60B;" cx="318.824" cy="429.6" r="3.8"/>
	<circle style="fill:#FFD60B;" cx="346.8" cy="429.6" r="3.8"/>
	<circle style="fill:#FFD60B;" cx="374.824" cy="429.6" r="3.8"/>
	<circle style="fill:#FFD60B;" cx="402.8" cy="429.6" r="3.8"/>
	<circle style="fill:#FFD60B;" cx="430.8" cy="429.6" r="3.8"/>
	<circle style="fill:#FFD60B;" cx="262.824" cy="453.352" r="3.8"/>
	<circle style="fill:#FFD60B;" cx="290.8" cy="453.352" r="3.8"/>
	<circle style="fill:#FFD60B;" cx="318.824" cy="453.352" r="3.8"/>
	<circle style="fill:#FFD60B;" cx="346.8" cy="453.352" r="3.8"/>
	<circle style="fill:#FFD60B;" cx="374.824" cy="453.352" r="3.8"/>
	<circle style="fill:#FFD60B;" cx="402.8" cy="453.352" r="3.8"/>
	<circle style="fill:#FFD60B;" cx="430.8" cy="453.352" r="3.8"/>
</g>
<polygon style="fill:#58B3D6;" points="404.16,480.312 80.16,480.312 72.16,384.312 412.16,384.312 "/>
<polygon style="fill:#4198C4;" points="404.16,480.312 80.16,480.312 72.16,400.312 412.16,400.312 "/>
<polygon style="fill:#491D05;" points="122.16,480.312 98.16,480.312 98.16,276.072 122.16,268 "/>
<polyline style="fill:#1C0B03;" points="122.16,272.312 122.16,480.312 98.16,480.312 "/>
<rect x="106.16" y="376.312" style="fill:#FFD60B;" width="16" height="16"/>
<polyline style="fill:#FF8908;" points="122.16,376.312 122.16,392.312 106.16,392.312 "/>
<rect x="106.16" y="424.312" style="fill:#FFD60B;" width="16" height="16"/>
<polyline style="fill:#FF8908;" points="122.16,424.312 122.16,440.312 106.16,440.312 "/>
<polygon style="fill:#491D05;" points="362.16,480.312 386.16,480.312 386.16,276.072 362.16,268 "/>
<polyline style="fill:#1C0B03;" points="362.16,272.312 362.16,480.312 386.16,480.312 "/>
<rect x="362.16" y="376.312" style="fill:#FFD60B;" width="16" height="16"/>
<polyline style="fill:#FF8908;" points="362.16,376.312 362.16,392.312 378.16,392.312 "/>
<rect x="362.16" y="424.312" style="fill:#FFD60B;" width="16" height="16"/>
<polyline style="fill:#FF8908;" points="362.16,424.312 362.16,440.312 378.16,440.312 "/>
<g>
	<circle style="fill:#B23A10;" cx="242.16" cy="366.992" r="5"/>
	<circle style="fill:#B23A10;" cx="242.16" cy="329.512" r="5"/>
	<circle style="fill:#B23A10;" cx="242.16" cy="291.992" r="5"/>
</g>
<path style="fill:#CCD9DB;" d="M199.384,435.632v-74.328c7.16-3.2,12.144-10.36,12.144-18.696c0-8.304-4.944-15.432-12.04-18.656
	l-1.936,19.088h-13.016l-1.92-19.08c-7.104,3.216-12.056,10.352-12.056,18.648c0,8.336,4.984,15.496,12.136,18.688v74.336
	c-7.144,3.2-12.136,10.36-12.136,18.696c0,11.304,9.176,20.48,20.488,20.48c11.32,0.008,20.488-9.168,20.488-20.48
	C211.52,445.992,206.544,438.832,199.384,435.632z M201.08,458.488l-5.872,5.872l-8.312-0.008l-5.88-5.88L181,450.168l5.896-5.872
	l8.312-0.008l5.872,5.872L201.08,458.488L201.08,458.488z"/>
<path style="fill:#BCCCCE;" d="M170.552,342.608c0,8.336,4.984,15.496,12.136,18.688v74.336c-7.144,3.2-12.136,10.36-12.136,18.696
	c0,11.304,9.176,20.48,20.488,20.48c11.32,0.008,20.488-9.168,20.488-20.48c0-8.336-4.976-15.496-12.144-18.696v-74.328
	c7.16-3.2,12.144-10.36,12.144-18.696c0-8.304-4.944-15.432-12.04-18.656l-1.936,19.088h-13.016l-1.92-19.08 M201.08,458.488
	l-5.872,5.872l-8.312-0.008l-5.88-5.88L181,450.168l5.896-5.872l8.312-0.008l5.872,5.872L201.08,458.488L201.08,458.488z"/>
<path style="fill:#AABEBF;" d="M199.384,435.632v-74.328c7.16-3.2,12.144-10.36,12.144-18.696c0-8.304-4.944-15.432-12.04-18.656
	l-1.936,19.088h-13.016"/>
<polyline style="fill:#BCCCCE;" points="199.048,343.192 191.048,345.424 183.032,343.192 "/>
<g>
	<polyline style="fill:#CCD9DB;" points="199.048,436.88 191.032,439.104 183.032,436.88 	"/>
	<path style="fill:#CCD9DB;" d="M224.664,394.024v53.768c-5.16,2.312-8.784,7.496-8.784,13.52c0,6.008,3.576,11.16,8.704,13.496
		L225.992,461h9.424l1.392,13.8c5.144-2.328,8.72-7.488,8.72-13.488c0-6.032-3.608-11.208-8.784-13.512v-53.776
		c5.168-2.312,8.784-7.496,8.784-13.512c0-8.176-6.64-14.816-14.816-14.816c-8.192-0.008-14.816,6.624-14.816,14.816
		C215.88,386.528,219.496,391.712,224.664,394.024z M223.448,377.488l4.248-4.248l6.008,0.008l4.256,4.256v6l-4.256,4.248
		l-6.008,0.008l-4.248-4.248V377.488z"/>
</g>
<path style="fill:#BCCCCE;" d="M245.52,461.312c0-6.032-3.608-11.208-8.784-13.512v-53.776c5.168-2.312,8.784-7.496,8.784-13.512
	c0-8.176-6.64-14.816-14.816-14.816c-8.192-0.008-14.816,6.624-14.816,14.816c-0.016,6.024,3.592,11.2,8.768,13.512v53.768
	c-5.16,2.312-8.784,7.496-8.784,13.52c0,6.008,3.576,11.16,8.704,13.496L225.984,461h9.424l1.392,13.8 M223.448,377.488l4.248-4.248
	l6.008,0.008l4.256,4.256v6l-4.256,4.248l-6.008,0.008l-4.248-4.248V377.488z"/>
<path style="fill:#AABEBF;" d="M224.664,394.024v53.768c-5.16,2.312-8.784,7.496-8.784,13.52c0,6.008,3.576,11.16,8.704,13.496
	L225.992,461h9.424"/>
<polyline style="fill:#BCCCCE;" points="224.912,460.88 230.696,459.272 236.496,460.88 "/>
<polyline style="fill:#CCD9DB;" points="224.912,393.128 230.712,391.512 236.496,393.128 "/>
<rect x="166.832" y="413.616" style="fill:#4198C4;" width="86" height="63"/>
<g>
	<path style="fill:#6DCBE8;" d="M326.832,412.416c0,1.84-1.504,3.336-3.344,3.336H160.832c-1.84,0-3.328-1.496-3.328-3.336l0,0
		c0-1.832,1.488-3.328,3.328-3.328h162.656C325.336,409.088,326.832,410.576,326.832,412.416L326.832,412.416z"/>
	<path style="fill:#6DCBE8;" d="M164.832,470.424c-1.84,0-3.328-0.536-3.328-1.208v-59.552c0-0.68,1.488-1.224,3.328-1.224l0,0
		c1.84,0,3.328,0.544,3.328,1.224v59.552C168.16,469.88,166.68,470.424,164.832,470.424L164.832,470.424z"/>
	<path style="fill:#6DCBE8;" d="M319.496,470.424c-1.84,0-3.328-0.536-3.328-1.208v-59.552c0-0.68,1.488-1.224,3.328-1.224l0,0
		c1.84,0,3.328,0.544,3.328,1.224v59.552C322.824,469.88,321.336,470.424,319.496,470.424L319.496,470.424z"/>
</g>
<g>
</g>
<g>
</g>
<g>
</g>
<g>
</g>
<g>
</g>
<g>
</g>
<g>
</g>
<g>
</g>
<g>
</g>
<g>
</g>
<g>
</g>
<g>
</g>
<g>
</g>
<g>
</g>
<g>
</g>
</svg>
